<svg width="25" height="25" viewBox="0 0 25 25" fill="none" xmlns="http://www.w3.org/2000/svg">
<path id="Vector" d="M18.693 8.22589C19.0482 7.803 18.9934 7.17222 18.5705 6.81699C18.1476 6.46177 17.5168 6.51662 17.1616 6.93951L18.693 8.22589ZM10.0279 16.9867L9.28459 17.6557C9.47821 17.8708 9.75556 17.9915 10.045 17.9866C10.3344 17.9816 10.6074 17.8516 10.7936 17.6299L10.0279 16.9867ZM7.38572 12.5562C7.01626 12.1456 6.38397 12.1124 5.97346 12.4818C5.56295 12.8513 5.52967 13.4836 5.89913 13.8941L7.38572 12.5562ZM24.5697 12.2848C24.5697 5.50239 19.0673 0 12.2848 0V2C17.9627 2 22.5697 6.60696 22.5697 12.2848H24.5697ZM12.2848 0C5.50239 0 0 5.50239 0 12.2848H2C2 6.60696 6.60696 2 12.2848 2V0ZM0 12.2848C0 19.0673 5.50239 24.5697 12.2848 24.5697V22.5697C6.60696 22.5697 2 17.9627 2 12.2848H0ZM12.2848 24.5697C19.0673 24.5697 24.5697 19.0673 24.5697 12.2848H22.5697C22.5697 17.9627 17.9627 22.5697 12.2848 22.5697V24.5697ZM17.1616 6.93951L9.26217 16.3435L10.7936 17.6299L18.693 8.22589L17.1616 6.93951ZM10.7712 16.3178L7.38572 12.5562L5.89913 13.8941L9.28459 17.6557L10.7712 16.3178Z" fill="#31C65B"/>
</svg>
